<?xml version="1.0" standalone="no"?>
<!DOCTYPE svg PUBLIC "-//W3C//DTD SVG 20010904//EN"
 "http://www.w3.org/TR/2001/REC-SVG-20010904/DTD/svg10.dtd">
<svg version="1.0" xmlns="http://www.w3.org/2000/svg"
 width="800.000000pt" height="800.000000pt" viewBox="0 0 800.000000 800.000000"
 preserveAspectRatio="xMidYMid meet">
<metadata>
Created by potrace 1.14, written by Peter Selinger 2001-2017
</metadata>
<g transform="translate(0.000000,800.000000) scale(0.100000,-0.100000)"
fill="#000000" stroke="none">
<path d="M20 5436 c0 -18 70 -87 315 -312 l315 -289 0 -860 0 -860 -315 -289
c-245 -225 -315 -294 -315 -312 l0 -24 1638 2 1637 3 96 26 c123 35 222 77
312 135 143 91 270 242 317 376 27 78 37 230 20 311 -34 165 -182 341 -389
461 -151 87 -365 159 -566 188 -76 11 -85 14 -85 33 0 19 9 22 94 33 371 50
670 237 765 481 43 108 44 257 2 375 -41 117 -169 273 -295 359 -86 58 -232
124 -343 155 l-98 27 -1552 3 -1553 2 0 -24z m2692 -473 c45 -20 108 -84 134
-135 55 -109 55 -279 -2 -392 -32 -63 -57 -91 -114 -124 l-45 -27 -522 -3
-523 -3 0 351 0 351 523 -3 c378 -2 529 -6 549 -15z m54 -1240 c55 -29 109
-93 136 -162 18 -47 22 -76 23 -181 0 -117 -2 -129 -28 -182 -16 -32 -43 -72
-60 -89 -65 -66 -46 -64 -649 -67 l-548 -3 0 356 0 356 543 -3 c538 -3 542 -3
583 -25z"/>
<path d="M4093 5397 c37 -34 195 -183 352 -332 l284 -270 1 -830 0 -830 -348
-320 -348 -320 594 -3 c326 -1 859 -1 1184 0 l590 3 -336 325 -336 325 0 173
0 172 683 0 c739 0 765 2 941 57 236 73 469 246 592 439 l34 53 0 373 0 374
-49 74 c-190 289 -524 515 -863 584 -68 14 -249 16 -1560 16 l-1483 0 68 -63z
m2678 -498 c43 -9 63 -21 104 -63 89 -89 128 -204 128 -377 0 -121 -14 -191
-54 -269 -34 -68 -89 -122 -154 -152 -50 -23 -52 -23 -557 -26 l-508 -3 0 450
0 451 495 0 c328 0 512 -4 546 -11z"/>
</g>
</svg>
